<svg width="46" height="46" fill="#ffd700" viewBox="0 0 24 24" xmlns="http://www.w3.org/2000/svg">
  <path d="M23.843 6.975c0-2.11-1.552-3.807-3.469-3.807A170.465 170.465 0 0 0 12.422 3h-.844c-2.7 0-5.353.047-7.95.169-1.912 0-3.464 1.706-3.464 3.815A69.732 69.732 0 0 0 0 11.99a72.582 72.582 0 0 0 .16 5.011c0 2.11 1.551 3.82 3.464 3.82 2.728.127 5.526.183 8.372.178 2.85.01 5.64-.05 8.371-.178 1.918 0 3.47-1.71 3.47-3.82a72.41 72.41 0 0 0 .159-5.016 68.19 68.19 0 0 0-.153-5.01Zm-14.14 9.614V7.378L16.5 11.98l-6.797 4.608Z"></path>
</svg>