<svg xmlns="http://www.w3.org/2000/svg" version="1.1" xmlns:xlink="http://www.w3.org/1999/xlink" xmlns:svgjs="http://svgjs.dev/svgjs" width="1440" height="560" preserveAspectRatio="none" viewBox="0 0 1440 560"><g mask="url(&quot;#SvgjsMask1086&quot;)" fill="none"><rect width="1440" height="560" x="0" y="0" fill="rgba(0, 0, 0, 1)"></rect><path d="M1325 149L970 -206" stroke-width="6" stroke="url(&quot;#SvgjsLinearGradient1087&quot;)" stroke-linecap="round" class="BottomRight"></path><path d="M764 332L410 -22" stroke-width="6" stroke="url(&quot;#SvgjsLinearGradient1088&quot;)" stroke-linecap="round" class="TopLeft"></path><path d="M784 196L1105 517" stroke-width="10" stroke="url(&quot;#SvgjsLinearGradient1087&quot;)" stroke-linecap="round" class="BottomRight"></path><path d="M1068 342L1263 537" stroke-width="6" stroke="url(&quot;#SvgjsLinearGradient1088&quot;)" stroke-linecap="round" class="TopLeft"></path><path d="M770 97L936 263" stroke-width="10" stroke="url(&quot;#SvgjsLinearGradient1087&quot;)" stroke-linecap="round" class="BottomRight"></path><path d="M1381 355L1075 49" stroke-width="8" stroke="url(&quot;#SvgjsLinearGradient1088&quot;)" stroke-linecap="round" class="TopLeft"></path><path d="M1374 75L1599 300" stroke-width="8" stroke="url(&quot;#SvgjsLinearGradient1088&quot;)" stroke-linecap="round" class="TopLeft"></path><path d="M644 327L332 15" stroke-width="10" stroke="url(&quot;#SvgjsLinearGradient1088&quot;)" stroke-linecap="round" class="TopLeft"></path><path d="M1276 480L1005 209" stroke-width="6" stroke="url(&quot;#SvgjsLinearGradient1087&quot;)" stroke-linecap="round" class="BottomRight"></path><path d="M727 67L410 -250" stroke-width="6" stroke="url(&quot;#SvgjsLinearGradient1087&quot;)" stroke-linecap="round" class="BottomRight"></path><path d="M1334 261L1563 490" stroke-width="10" stroke="url(&quot;#SvgjsLinearGradient1088&quot;)" stroke-linecap="round" class="TopLeft"></path><path d="M956 447L1180 671" stroke-width="10" stroke="url(&quot;#SvgjsLinearGradient1088&quot;)" stroke-linecap="round" class="TopLeft"></path><path d="M385 372L574 561" stroke-width="10" stroke="url(&quot;#SvgjsLinearGradient1087&quot;)" stroke-linecap="round" class="BottomRight"></path><path d="M771 365L1156 750" stroke-width="6" stroke="url(&quot;#SvgjsLinearGradient1088&quot;)" stroke-linecap="round" class="TopLeft"></path><path d="M1414 78L1058 -278" stroke-width="10" stroke="url(&quot;#SvgjsLinearGradient1087&quot;)" stroke-linecap="round" class="BottomRight"></path><path d="M265 517L513 765" stroke-width="8" stroke="url(&quot;#SvgjsLinearGradient1088&quot;)" stroke-linecap="round" class="TopLeft"></path><path d="M602 229L311 -62" stroke-width="10" stroke="url(&quot;#SvgjsLinearGradient1087&quot;)" stroke-linecap="round" class="BottomRight"></path><path d="M456 315L312 171" stroke-width="8" stroke="url(&quot;#SvgjsLinearGradient1087&quot;)" stroke-linecap="round" class="BottomRight"></path><path d="M204 266L48 110" stroke-width="8" stroke="url(&quot;#SvgjsLinearGradient1087&quot;)" stroke-linecap="round" class="BottomRight"></path><path d="M1256 36L1069 -151" stroke-width="10" stroke="url(&quot;#SvgjsLinearGradient1088&quot;)" stroke-linecap="round" class="TopLeft"></path><path d="M943 251L659 -33" stroke-width="8" stroke="url(&quot;#SvgjsLinearGradient1088&quot;)" stroke-linecap="round" class="TopLeft"></path><path d="M1164 475L1402 713" stroke-width="10" stroke="url(&quot;#SvgjsLinearGradient1087&quot;)" stroke-linecap="round" class="BottomRight"></path><path d="M398 160L686 448" stroke-width="10" stroke="url(&quot;#SvgjsLinearGradient1087&quot;)" stroke-linecap="round" class="BottomRight"></path><path d="M1064 256L1302 494" stroke-width="10" stroke="url(&quot;#SvgjsLinearGradient1087&quot;)" stroke-linecap="round" class="BottomRight"></path><path d="M18 75L287 344" stroke-width="6" stroke="url(&quot;#SvgjsLinearGradient1087&quot;)" stroke-linecap="round" class="BottomRight"></path><path d="M214 399L501 686" stroke-width="8" stroke="url(&quot;#SvgjsLinearGradient1087&quot;)" stroke-linecap="round" class="BottomRight"></path><path d="M145 255L-103 7" stroke-width="10" stroke="url(&quot;#SvgjsLinearGradient1087&quot;)" stroke-linecap="round" class="BottomRight"></path><path d="M530 218L844 532" stroke-width="8" stroke="url(&quot;#SvgjsLinearGradient1087&quot;)" stroke-linecap="round" class="BottomRight"></path><path d="M549 419L264 134" stroke-width="8" stroke="url(&quot;#SvgjsLinearGradient1088&quot;)" stroke-linecap="round" class="TopLeft"></path><path d="M86 345L-299 -40" stroke-width="10" stroke="url(&quot;#SvgjsLinearGradient1088&quot;)" stroke-linecap="round" class="TopLeft"></path><path d="M26 315L-335 -46" stroke-width="6" stroke="url(&quot;#SvgjsLinearGradient1088&quot;)" stroke-linecap="round" class="TopLeft"></path><path d="M375 382L528 535" stroke-width="6" stroke="url(&quot;#SvgjsLinearGradient1088&quot;)" stroke-linecap="round" class="TopLeft"></path><path d="M159 528L-232 137" stroke-width="8" stroke="url(&quot;#SvgjsLinearGradient1087&quot;)" stroke-linecap="round" class="BottomRight"></path><path d="M434 227L688 481" stroke-width="6" stroke="url(&quot;#SvgjsLinearGradient1087&quot;)" stroke-linecap="round" class="BottomRight"></path><path d="M448 78L75 -295" stroke-width="10" stroke="url(&quot;#SvgjsLinearGradient1087&quot;)" stroke-linecap="round" class="BottomRight"></path><path d="M1340 265L1681 606" stroke-width="10" stroke="url(&quot;#SvgjsLinearGradient1088&quot;)" stroke-linecap="round" class="TopLeft"></path><path d="M1331 45L1096 -190" stroke-width="8" stroke="url(&quot;#SvgjsLinearGradient1088&quot;)" stroke-linecap="round" class="TopLeft"></path><path d="M168 440L-153 119" stroke-width="6" stroke="url(&quot;#SvgjsLinearGradient1088&quot;)" stroke-linecap="round" class="TopLeft"></path><path d="M751 291L1075 615" stroke-width="8" stroke="url(&quot;#SvgjsLinearGradient1087&quot;)" stroke-linecap="round" class="BottomRight"></path></g><defs><mask id="SvgjsMask1086"><rect width="1440" height="560" fill="#ffffff"></rect></mask><linearGradient x1="0%" y1="0%" x2="100%" y2="100%" id="SvgjsLinearGradient1087"><stop stop-color="rgba(255, 215, 0, 0)" offset="0"></stop><stop stop-color="rgba(255, 215, 0, 1)" offset="1"></stop></linearGradient><linearGradient x1="100%" y1="100%" x2="0%" y2="0%" id="SvgjsLinearGradient1088"><stop stop-color="rgba(255, 215, 0, 0)" offset="0"></stop><stop stop-color="rgba(255, 215, 0, 1)" offset="1"></stop></linearGradient></defs></svg>