<svg xmlns="http://www.w3.org/2000/svg" version="1.1" xmlns:xlink="http://www.w3.org/1999/xlink" xmlns:svgjs="http://svgjs.dev/svgjs" width="1440" height="560" preserveAspectRatio="none" viewBox="0 0 1440 560"><g mask="url(&quot;#SvgjsMask1069&quot;)" fill="none"><rect width="1440" height="560" x="0" y="0" fill="rgba(0, 15, 29, 1)"></rect><path d="M0,547.241C99.671,568.47,193.232,488.534,274.162,426.604C350.338,368.311,410.893,293.042,447.855,204.528C484.004,117.961,500.093,22.704,481.196,-69.185C462.901,-158.148,401.941,-228.153,344.421,-298.442C285.305,-370.681,233.858,-466.98,142.016,-483.66C50.355,-500.308,-23.38,-410.158,-111.969,-381.332C-196.989,-353.667,-308.713,-385.805,-367.02,-318.025C-425.345,-250.224,-377.218,-144.576,-391.575,-56.3C-406.31,34.305,-492.228,123.901,-452.338,206.576C-412.285,289.588,-281.767,268.428,-208.142,323.876C-125.167,386.366,-101.595,525.602,0,547.241" fill="#000a13"></path><path d="M1440 1168.6770000000001C1552.032 1170.8229999999999 1629.097 1061.4850000000001 1724.094 1002.059 1820.524 941.736 1941.1480000000001 912.678 2002.42 816.8489999999999 2066.939 715.942 2079.458 589.049 2064.119 470.265 2048.647 350.451 2009.4859999999999 224.05900000000003 1915.991 147.551 1826.088 73.98200000000003 1697.161 92.24900000000002 1582.154 75.86900000000003 1484.534 61.96600000000001 1391.028 49.80200000000002 1292.834 58.798 1173.3609999999999 69.74400000000003 1020.986 38.49199999999996 948.303 133.942 874.545 230.803 957.159 369.881 963.361 491.47 968.193 586.205 945.579 681.636 980.735 769.739 1016.896 860.3620000000001 1089.153 927.325 1162.814 991.31 1247.338 1064.731 1328.061 1166.533 1440 1168.6770000000001" fill="#001427"></path></g><defs><mask id="SvgjsMask1069"><rect width="1440" height="560" fill="#ffffff"></rect></mask></defs></svg>