<?xml version="1.0" standalone="no"?><svg xmlns="http://www.w3.org/2000/svg" viewBox="0 0 1440 320"><path fill="#ffd700" fill-opacity="1" d="M0,96L40,106.7C80,117,160,139,240,165.3C320,192,400,224,480,213.3C560,203,640,149,720,122.7C800,96,880,96,960,90.7C1040,85,1120,75,1200,101.3C1280,128,1360,192,1400,224L1440,256L1440,320L1400,320C1360,320,1280,320,1200,320C1120,320,1040,320,960,320C880,320,800,320,720,320C640,320,560,320,480,320C400,320,320,320,240,320C160,320,80,320,40,320L0,320Z"></path></svg>