<svg xmlns="http://www.w3.org/2000/svg" version="1.1" xmlns:xlink="http://www.w3.org/1999/xlink" xmlns:svgjs="http://svgjs.dev/svgjs" width="1440" height="560" preserveAspectRatio="none" viewBox="0 0 1440 560"><g mask="url(&quot;#SvgjsMask1278&quot;)" fill="none"><rect width="1440" height="560" x="0" y="0" fill="rgba(0, 0, 0, 1)"></rect><path d="M0 -120L103.93 -60L103.93 60L0 120L-103.93 60L-103.93 -60zM103.93 60L207.85 120L207.85 240L103.93 300L0 240L0 120zM0 240L103.93 300L103.93 420L0 480L-103.93 420L-103.93 300zM103.93 420L207.85 480L207.85 600L103.93 660L0 600L0 480zM207.85 -120L311.78 -60L311.78 60L207.85 120L103.93 60L103.93 -60zM311.78 60L415.7 120L415.7 240L311.78 300L207.85 240L207.85 120zM207.85 240L311.78 300L311.78 420L207.85 480L103.93 420L103.93 300zM311.78 420L415.7 480L415.7 600L311.78 660L207.85 600L207.85 480zM415.7 -120L519.63 -60L519.63 60L415.7 120L311.78 60L311.78 -60zM519.63 60L623.56 120L623.56 240L519.63 300L415.7 240L415.7 120zM415.7 240L519.63 300L519.63 420L415.7 480L311.78 420L311.78 300zM519.63 420L623.56 480L623.56 600L519.63 660L415.7 600L415.7 480zM623.56 -120L727.48 -60L727.48 60L623.56 120L519.63 60L519.63 -60zM727.48 60L831.41 120L831.41 240L727.48 300L623.56 240L623.56 120zM623.56 240L727.48 300L727.48 420L623.56 480L519.63 420L519.63 300zM727.48 420L831.41 480L831.41 600L727.48 660L623.56 600L623.56 480zM831.41 -120L935.33 -60L935.33 60L831.41 120L727.48 60L727.48 -60zM935.33 60L1039.26 120L1039.26 240L935.33 300L831.41 240L831.41 120zM831.41 240L935.33 300L935.33 420L831.41 480L727.48 420L727.48 300zM935.33 420L1039.26 480L1039.26 600L935.33 660L831.41 600L831.41 480zM1039.26 -120L1143.19 -60L1143.19 60L1039.26 120L935.33 60L935.33 -60zM1143.19 60L1247.11 120L1247.11 240L1143.19 300L1039.26 240L1039.26 120zM1039.26 240L1143.19 300L1143.19 420L1039.26 480L935.33 420L935.33 300zM1143.19 420L1247.11 480L1247.11 600L1143.19 660L1039.26 600L1039.26 480zM1247.11 -120L1351.04 -60L1351.04 60L1247.11 120L1143.19 60L1143.19 -60zM1351.04 60L1454.96 120L1454.96 240L1351.04 300L1247.11 240L1247.11 120zM1247.11 240L1351.04 300L1351.04 420L1247.11 480L1143.19 420L1143.19 300zM1351.04 420L1454.96 480L1454.96 600L1351.04 660L1247.11 600L1247.11 480z" stroke="rgba(255, 215, 0, 1)" stroke-width="2"></path><path d="M-12 -120 a12 12 0 1 0 24 0 a12 12 0 1 0 -24 0zM91.93 -60 a12 12 0 1 0 24 0 a12 12 0 1 0 -24 0zM91.93 60 a12 12 0 1 0 24 0 a12 12 0 1 0 -24 0zM-12 120 a12 12 0 1 0 24 0 a12 12 0 1 0 -24 0zM-115.93 60 a12 12 0 1 0 24 0 a12 12 0 1 0 -24 0zM-115.93 -60 a12 12 0 1 0 24 0 a12 12 0 1 0 -24 0zM195.85 120 a12 12 0 1 0 24 0 a12 12 0 1 0 -24 0zM195.85 240 a12 12 0 1 0 24 0 a12 12 0 1 0 -24 0zM91.93 300 a12 12 0 1 0 24 0 a12 12 0 1 0 -24 0zM-12 240 a12 12 0 1 0 24 0 a12 12 0 1 0 -24 0zM91.93 420 a12 12 0 1 0 24 0 a12 12 0 1 0 -24 0zM-12 480 a12 12 0 1 0 24 0 a12 12 0 1 0 -24 0zM-115.93 420 a12 12 0 1 0 24 0 a12 12 0 1 0 -24 0zM-115.93 300 a12 12 0 1 0 24 0 a12 12 0 1 0 -24 0zM195.85 480 a12 12 0 1 0 24 0 a12 12 0 1 0 -24 0zM195.85 600 a12 12 0 1 0 24 0 a12 12 0 1 0 -24 0zM91.93 660 a12 12 0 1 0 24 0 a12 12 0 1 0 -24 0zM-12 600 a12 12 0 1 0 24 0 a12 12 0 1 0 -24 0zM195.85 -120 a12 12 0 1 0 24 0 a12 12 0 1 0 -24 0zM299.78 -60 a12 12 0 1 0 24 0 a12 12 0 1 0 -24 0zM299.78 60 a12 12 0 1 0 24 0 a12 12 0 1 0 -24 0zM403.7 120 a12 12 0 1 0 24 0 a12 12 0 1 0 -24 0zM403.7 240 a12 12 0 1 0 24 0 a12 12 0 1 0 -24 0zM299.78 300 a12 12 0 1 0 24 0 a12 12 0 1 0 -24 0zM299.78 420 a12 12 0 1 0 24 0 a12 12 0 1 0 -24 0zM403.7 480 a12 12 0 1 0 24 0 a12 12 0 1 0 -24 0zM403.7 600 a12 12 0 1 0 24 0 a12 12 0 1 0 -24 0zM299.78 660 a12 12 0 1 0 24 0 a12 12 0 1 0 -24 0zM403.7 -120 a12 12 0 1 0 24 0 a12 12 0 1 0 -24 0zM507.63 -60 a12 12 0 1 0 24 0 a12 12 0 1 0 -24 0zM507.63 60 a12 12 0 1 0 24 0 a12 12 0 1 0 -24 0zM611.56 120 a12 12 0 1 0 24 0 a12 12 0 1 0 -24 0zM611.56 240 a12 12 0 1 0 24 0 a12 12 0 1 0 -24 0zM507.63 300 a12 12 0 1 0 24 0 a12 12 0 1 0 -24 0zM507.63 420 a12 12 0 1 0 24 0 a12 12 0 1 0 -24 0zM611.56 480 a12 12 0 1 0 24 0 a12 12 0 1 0 -24 0zM611.56 600 a12 12 0 1 0 24 0 a12 12 0 1 0 -24 0zM507.63 660 a12 12 0 1 0 24 0 a12 12 0 1 0 -24 0zM611.56 -120 a12 12 0 1 0 24 0 a12 12 0 1 0 -24 0zM715.48 -60 a12 12 0 1 0 24 0 a12 12 0 1 0 -24 0zM715.48 60 a12 12 0 1 0 24 0 a12 12 0 1 0 -24 0zM819.41 120 a12 12 0 1 0 24 0 a12 12 0 1 0 -24 0zM819.41 240 a12 12 0 1 0 24 0 a12 12 0 1 0 -24 0zM715.48 300 a12 12 0 1 0 24 0 a12 12 0 1 0 -24 0zM715.48 420 a12 12 0 1 0 24 0 a12 12 0 1 0 -24 0zM819.41 480 a12 12 0 1 0 24 0 a12 12 0 1 0 -24 0zM819.41 600 a12 12 0 1 0 24 0 a12 12 0 1 0 -24 0zM715.48 660 a12 12 0 1 0 24 0 a12 12 0 1 0 -24 0zM819.41 -120 a12 12 0 1 0 24 0 a12 12 0 1 0 -24 0zM923.33 -60 a12 12 0 1 0 24 0 a12 12 0 1 0 -24 0zM923.33 60 a12 12 0 1 0 24 0 a12 12 0 1 0 -24 0zM1027.26 120 a12 12 0 1 0 24 0 a12 12 0 1 0 -24 0zM1027.26 240 a12 12 0 1 0 24 0 a12 12 0 1 0 -24 0zM923.33 300 a12 12 0 1 0 24 0 a12 12 0 1 0 -24 0zM923.33 420 a12 12 0 1 0 24 0 a12 12 0 1 0 -24 0zM1027.26 480 a12 12 0 1 0 24 0 a12 12 0 1 0 -24 0zM1027.26 600 a12 12 0 1 0 24 0 a12 12 0 1 0 -24 0zM923.33 660 a12 12 0 1 0 24 0 a12 12 0 1 0 -24 0zM1027.26 -120 a12 12 0 1 0 24 0 a12 12 0 1 0 -24 0zM1131.19 -60 a12 12 0 1 0 24 0 a12 12 0 1 0 -24 0zM1131.19 60 a12 12 0 1 0 24 0 a12 12 0 1 0 -24 0zM1235.11 120 a12 12 0 1 0 24 0 a12 12 0 1 0 -24 0zM1235.11 240 a12 12 0 1 0 24 0 a12 12 0 1 0 -24 0zM1131.19 300 a12 12 0 1 0 24 0 a12 12 0 1 0 -24 0zM1131.19 420 a12 12 0 1 0 24 0 a12 12 0 1 0 -24 0zM1235.11 480 a12 12 0 1 0 24 0 a12 12 0 1 0 -24 0zM1235.11 600 a12 12 0 1 0 24 0 a12 12 0 1 0 -24 0zM1131.19 660 a12 12 0 1 0 24 0 a12 12 0 1 0 -24 0zM1235.11 -120 a12 12 0 1 0 24 0 a12 12 0 1 0 -24 0zM1339.04 -60 a12 12 0 1 0 24 0 a12 12 0 1 0 -24 0zM1339.04 60 a12 12 0 1 0 24 0 a12 12 0 1 0 -24 0zM1442.96 120 a12 12 0 1 0 24 0 a12 12 0 1 0 -24 0zM1442.96 240 a12 12 0 1 0 24 0 a12 12 0 1 0 -24 0zM1339.04 300 a12 12 0 1 0 24 0 a12 12 0 1 0 -24 0zM1339.04 420 a12 12 0 1 0 24 0 a12 12 0 1 0 -24 0zM1442.96 480 a12 12 0 1 0 24 0 a12 12 0 1 0 -24 0zM1442.96 600 a12 12 0 1 0 24 0 a12 12 0 1 0 -24 0zM1339.04 660 a12 12 0 1 0 24 0 a12 12 0 1 0 -24 0z" fill="rgba(255, 215, 0, 1)"></path><path d="M24.77 -7.08L49.02 6.92L49.02 34.92L24.77 48.92L0.52 34.92L0.52 6.92zM49.02 34.92L73.27 48.92L73.27 76.92L49.02 90.92L24.77 76.92L24.77 48.92zM49.02 202.92L73.27 216.92L73.27 244.92L49.02 258.92L24.77 244.92L24.77 216.92zM49.02 538.92L73.27 552.92L73.27 580.92L49.02 594.92L24.77 580.92L24.77 552.92zM73.27 244.92L97.52 258.92L97.52 286.92L73.27 300.92L49.02 286.92L49.02 258.92zM97.52 286.92L121.77 300.92L121.77 328.92L97.52 342.92L73.27 328.92L73.27 300.92zM97.52 370.92L121.77 384.92L121.77 412.92L97.52 426.92L73.27 412.92L73.27 384.92zM73.27 496.92L97.52 510.92L97.52 538.92L73.27 552.92L49.02 538.92L49.02 510.92zM97.52 538.92L121.77 552.92L121.77 580.92L97.52 594.92L73.27 580.92L73.27 552.92zM121.77 76.92L146.02 90.92L146.02 118.92L121.77 132.92L97.52 118.92L97.52 90.92zM146.02 118.92L170.27 132.92L170.27 160.92L146.02 174.92L121.77 160.92L121.77 132.92zM121.77 328.92L146.02 342.92L146.02 370.92L121.77 384.92L97.52 370.92L97.52 342.92zM146.02 370.92L170.27 384.92L170.27 412.92L146.02 426.92L121.77 412.92L121.77 384.92zM146.02 454.92L170.27 468.92L170.27 496.92L146.02 510.92L121.77 496.92L121.77 468.92zM146.02 538.92L170.27 552.92L170.27 580.92L146.02 594.92L121.77 580.92L121.77 552.92zM170.27 412.92L194.52 426.92L194.52 454.92L170.27 468.92L146.02 454.92L146.02 426.92zM218.77 328.92L243.01 342.92L243.01 370.92L218.77 384.92L194.52 370.92L194.52 342.92zM267.26 -7.08L291.51 6.92L291.51 34.92L267.26 48.92L243.01 34.92L243.01 6.92zM267.26 76.92L291.51 90.92L291.51 118.92L267.26 132.92L243.01 118.92L243.01 90.92zM291.51 118.92L315.76 132.92L315.76 160.92L291.51 174.92L267.26 160.92L267.26 132.92zM267.26 328.92L291.51 342.92L291.51 370.92L267.26 384.92L243.01 370.92L243.01 342.92zM267.26 412.92L291.51 426.92L291.51 454.92L267.26 468.92L243.01 454.92L243.01 426.92zM340.01 34.92L364.26 48.92L364.26 76.92L340.01 90.92L315.76 76.92L315.76 48.92zM340.01 118.92L364.26 132.92L364.26 160.92L340.01 174.92L315.76 160.92L315.76 132.92zM315.76 244.92L340.01 258.92L340.01 286.92L315.76 300.92L291.51 286.92L291.51 258.92zM315.76 328.92L340.01 342.92L340.01 370.92L315.76 384.92L291.51 370.92L291.51 342.92zM315.76 496.92L340.01 510.92L340.01 538.92L315.76 552.92L291.51 538.92L291.51 510.92zM388.51 34.92L412.76 48.92L412.76 76.92L388.51 90.92L364.26 76.92L364.26 48.92zM364.26 160.92L388.51 174.92L388.51 202.92L364.26 216.92L340.01 202.92L340.01 174.92zM364.26 328.92L388.51 342.92L388.51 370.92L364.26 384.92L340.01 370.92L340.01 342.92zM437.01 34.92L461.26 48.92L461.26 76.92L437.01 90.92L412.76 76.92L412.76 48.92zM437.01 118.92L461.26 132.92L461.26 160.92L437.01 174.92L412.76 160.92L412.76 132.92zM412.76 160.92L437.01 174.92L437.01 202.92L412.76 216.92L388.51 202.92L388.51 174.92zM437.01 370.92L461.26 384.92L461.26 412.92L437.01 426.92L412.76 412.92L412.76 384.92zM485.51 34.92L509.76 48.92L509.76 76.92L485.51 90.92L461.26 76.92L461.26 48.92zM461.26 76.92L485.51 90.92L485.51 118.92L461.26 132.92L437.01 118.92L437.01 90.92zM485.51 202.92L509.76 216.92L509.76 244.92L485.51 258.92L461.26 244.92L461.26 216.92zM461.26 412.92L485.51 426.92L485.51 454.92L461.26 468.92L437.01 454.92L437.01 426.92zM534.01 202.92L558.26 216.92L558.26 244.92L534.01 258.92L509.76 244.92L509.76 216.92zM509.76 244.92L534.01 258.92L534.01 286.92L509.76 300.92L485.51 286.92L485.51 258.92zM534.01 454.92L558.26 468.92L558.26 496.92L534.01 510.92L509.76 496.92L509.76 468.92zM534.01 538.92L558.26 552.92L558.26 580.92L534.01 594.92L509.76 580.92L509.76 552.92zM582.51 34.92L606.76 48.92L606.76 76.92L582.51 90.92L558.26 76.92L558.26 48.92zM558.26 160.92L582.51 174.92L582.51 202.92L558.26 216.92L534.01 202.92L534.01 174.92zM582.51 202.92L606.76 216.92L606.76 244.92L582.51 258.92L558.26 244.92L558.26 216.92zM558.26 244.92L582.51 258.92L582.51 286.92L558.26 300.92L534.01 286.92L534.01 258.92zM582.51 286.92L606.76 300.92L606.76 328.92L582.51 342.92L558.26 328.92L558.26 300.92zM582.51 370.92L606.76 384.92L606.76 412.92L582.51 426.92L558.26 412.92L558.26 384.92zM582.51 454.92L606.76 468.92L606.76 496.92L582.51 510.92L558.26 496.92L558.26 468.92zM606.76 76.92L631 90.92L631 118.92L606.76 132.92L582.51 118.92L582.51 90.92zM631 118.92L655.25 132.92L655.25 160.92L631 174.92L606.76 160.92L606.76 132.92zM606.76 496.92L631 510.92L631 538.92L606.76 552.92L582.51 538.92L582.51 510.92zM631 538.92L655.25 552.92L655.25 580.92L631 594.92L606.76 580.92L606.76 552.92zM655.25 -7.08L679.5 6.92L679.5 34.92L655.25 48.92L631 34.92L631 6.92zM655.25 496.92L679.5 510.92L679.5 538.92L655.25 552.92L631 538.92L631 510.92zM679.5 538.92L703.75 552.92L703.75 580.92L679.5 594.92L655.25 580.92L655.25 552.92zM703.75 160.92L728 174.92L728 202.92L703.75 216.92L679.5 202.92L679.5 174.92zM703.75 328.92L728 342.92L728 370.92L703.75 384.92L679.5 370.92L679.5 342.92zM703.75 412.92L728 426.92L728 454.92L703.75 468.92L679.5 454.92L679.5 426.92zM752.25 76.92L776.5 90.92L776.5 118.92L752.25 132.92L728 118.92L728 90.92zM776.5 118.92L800.75 132.92L800.75 160.92L776.5 174.92L752.25 160.92L752.25 132.92zM752.25 328.92L776.5 342.92L776.5 370.92L752.25 384.92L728 370.92L728 342.92zM776.5 454.92L800.75 468.92L800.75 496.92L776.5 510.92L752.25 496.92L752.25 468.92zM825 370.92L849.25 384.92L849.25 412.92L825 426.92L800.75 412.92L800.75 384.92zM849.25 160.92L873.5 174.92L873.5 202.92L849.25 216.92L825 202.92L825 174.92zM873.5 202.92L897.75 216.92L897.75 244.92L873.5 258.92L849.25 244.92L849.25 216.92zM873.5 370.92L897.75 384.92L897.75 412.92L873.5 426.92L849.25 412.92L849.25 384.92zM849.25 412.92L873.5 426.92L873.5 454.92L849.25 468.92L825 454.92L825 426.92zM849.25 496.92L873.5 510.92L873.5 538.92L849.25 552.92L825 538.92L825 510.92zM897.75 -7.08L922 6.92L922 34.92L897.75 48.92L873.5 34.92L873.5 6.92zM922 118.92L946.25 132.92L946.25 160.92L922 174.92L897.75 160.92L897.75 132.92zM922 202.92L946.25 216.92L946.25 244.92L922 258.92L897.75 244.92L897.75 216.92zM922 370.92L946.25 384.92L946.25 412.92L922 426.92L897.75 412.92L897.75 384.92zM922 454.92L946.25 468.92L946.25 496.92L922 510.92L897.75 496.92L897.75 468.92zM970.5 34.92L994.75 48.92L994.75 76.92L970.5 90.92L946.25 76.92L946.25 48.92zM970.5 118.92L994.75 132.92L994.75 160.92L970.5 174.92L946.25 160.92L946.25 132.92zM946.25 244.92L970.5 258.92L970.5 286.92L946.25 300.92L922 286.92L922 258.92zM970.5 286.92L994.75 300.92L994.75 328.92L970.5 342.92L946.25 328.92L946.25 300.92zM970.5 370.92L994.75 384.92L994.75 412.92L970.5 426.92L946.25 412.92L946.25 384.92zM970.5 454.92L994.75 468.92L994.75 496.92L970.5 510.92L946.25 496.92L946.25 468.92zM1019 202.92L1043.24 216.92L1043.24 244.92L1019 258.92L994.75 244.92L994.75 216.92zM994.75 328.92L1019 342.92L1019 370.92L994.75 384.92L970.5 370.92L970.5 342.92zM1043.24 76.92L1067.49 90.92L1067.49 118.92L1043.24 132.92L1019 118.92L1019 90.92zM1043.24 160.92L1067.49 174.92L1067.49 202.92L1043.24 216.92L1019 202.92L1019 174.92zM1067.49 202.92L1091.74 216.92L1091.74 244.92L1067.49 258.92L1043.24 244.92L1043.24 216.92zM1091.74 -7.08L1115.99 6.92L1115.99 34.92L1091.74 48.92L1067.49 34.92L1067.49 6.92zM1115.99 286.92L1140.24 300.92L1140.24 328.92L1115.99 342.92L1091.74 328.92L1091.74 300.92zM1164.49 118.92L1188.74 132.92L1188.74 160.92L1164.49 174.92L1140.24 160.92L1140.24 132.92zM1164.49 202.92L1188.74 216.92L1188.74 244.92L1164.49 258.92L1140.24 244.92L1140.24 216.92zM1140.24 412.92L1164.49 426.92L1164.49 454.92L1140.24 468.92L1115.99 454.92L1115.99 426.92zM1212.99 202.92L1237.24 216.92L1237.24 244.92L1212.99 258.92L1188.74 244.92L1188.74 216.92zM1212.99 286.92L1237.24 300.92L1237.24 328.92L1212.99 342.92L1188.74 328.92L1188.74 300.92zM1212.99 370.92L1237.24 384.92L1237.24 412.92L1212.99 426.92L1188.74 412.92L1188.74 384.92zM1188.74 412.92L1212.99 426.92L1212.99 454.92L1188.74 468.92L1164.49 454.92L1164.49 426.92zM1261.49 118.92L1285.74 132.92L1285.74 160.92L1261.49 174.92L1237.24 160.92L1237.24 132.92zM1237.24 412.92L1261.49 426.92L1261.49 454.92L1237.24 468.92L1212.99 454.92L1212.99 426.92zM1261.49 538.92L1285.74 552.92L1285.74 580.92L1261.49 594.92L1237.24 580.92L1237.24 552.92zM1309.99 34.92L1334.24 48.92L1334.24 76.92L1309.99 90.92L1285.74 76.92L1285.74 48.92zM1285.74 160.92L1309.99 174.92L1309.99 202.92L1285.74 216.92L1261.49 202.92L1261.49 174.92zM1309.99 202.92L1334.24 216.92L1334.24 244.92L1309.99 258.92L1285.74 244.92L1285.74 216.92zM1309.99 370.92L1334.24 384.92L1334.24 412.92L1309.99 426.92L1285.74 412.92L1285.74 384.92zM1358.49 34.92L1382.74 48.92L1382.74 76.92L1358.49 90.92L1334.24 76.92L1334.24 48.92zM1334.24 160.92L1358.49 174.92L1358.49 202.92L1334.24 216.92L1309.99 202.92L1309.99 174.92zM1334.24 244.92L1358.49 258.92L1358.49 286.92L1334.24 300.92L1309.99 286.92L1309.99 258.92zM1358.49 454.92L1382.74 468.92L1382.74 496.92L1358.49 510.92L1334.24 496.92L1334.24 468.92zM1382.74 -7.08L1406.99 6.92L1406.99 34.92L1382.74 48.92L1358.49 34.92L1358.49 6.92zM1406.99 286.92L1431.24 300.92L1431.24 328.92L1406.99 342.92L1382.74 328.92L1382.74 300.92zM1382.74 328.92L1406.99 342.92L1406.99 370.92L1382.74 384.92L1358.49 370.92L1358.49 342.92zM1382.74 412.92L1406.99 426.92L1406.99 454.92L1382.74 468.92L1358.49 454.92L1358.49 426.92zM1431.24 76.92L1455.48 90.92L1455.48 118.92L1431.24 132.92L1406.99 118.92L1406.99 90.92zM1455.48 202.92L1479.73 216.92L1479.73 244.92L1455.48 258.92L1431.24 244.92L1431.24 216.92z" stroke="rgba(255, 215, 0, 1)" stroke-width="2"></path></g><defs><mask id="SvgjsMask1278"><rect width="1440" height="560" fill="#ffffff"></rect></mask></defs></svg>