<svg xmlns="http://www.w3.org/2000/svg" version="1.1" xmlns:xlink="http://www.w3.org/1999/xlink" xmlns:svgjs="http://svgjs.dev/svgjs" width="1440" height="560" preserveAspectRatio="none" viewBox="0 0 1440 560"><g mask="url(&quot;#SvgjsMask1615&quot;)" fill="none"><g transform="translate(0, 0)" stroke-linecap="round"><path d="M38.5 245.55 L38.5 314.45" stroke-width="35.25" stroke="rgba(255, 215, 0, 1)"></path><path d="M85.5 181.38 L85.5 378.62" stroke-width="35.25" stroke="rgba(0, 0, 0, 1)"></path><path d="M132.5 242.26 L132.5 317.74" stroke-width="35.25" stroke="rgba(255, 215, 0, 1)"></path><path d="M179.5 50.06 L179.5 509.94" stroke-width="35.25" stroke="rgba(255, 215, 0, 1)"></path><path d="M226.5 76.68 L226.5 483.32" stroke-width="35.25" stroke="rgba(255, 215, 0, 1)"></path><path d="M273.5 63.13 L273.5 496.88" stroke-width="35.25" stroke="rgba(255, 215, 0, 1)"></path><path d="M320.5 95.16 L320.5 464.85" stroke-width="35.25" stroke="rgba(0, 0, 0, 1)"></path><path d="M367.5 136.07 L367.5 423.93" stroke-width="35.25" stroke="rgba(0, 0, 0, 1)"></path><path d="M414.5 153.8 L414.5 406.2" stroke-width="35.25" stroke="rgba(255, 215, 0, 1)"></path><path d="M461.5 190.39 L461.5 369.61" stroke-width="35.25" stroke="rgba(0, 0, 0, 1)"></path><path d="M508.5 235.85 L508.5 324.15" stroke-width="35.25" stroke="rgba(255, 215, 0, 1)"></path><path d="M555.5 135.14 L555.5 424.86" stroke-width="35.25" stroke="rgba(255, 215, 0, 1)"></path><path d="M602.5 70.81 L602.5 489.19" stroke-width="35.25" stroke="rgba(255, 215, 0, 1)"></path><path d="M649.5 117.31 L649.5 442.69" stroke-width="35.25" stroke="rgba(255, 215, 0, 1)"></path><path d="M696.5 36.45 L696.5 523.55" stroke-width="35.25" stroke="rgba(255, 215, 0, 1)"></path><path d="M743.5 216.31 L743.5 343.69" stroke-width="35.25" stroke="rgba(0, 0, 0, 1)"></path><path d="M790.5 40.6 L790.5 519.39" stroke-width="35.25" stroke="rgba(255, 215, 0, 1)"></path><path d="M837.5 28.09 L837.5 531.91" stroke-width="35.25" stroke="rgba(0, 0, 0, 1)"></path><path d="M884.5 203.25 L884.5 356.75" stroke-width="35.25" stroke="rgba(0, 0, 0, 1)"></path><path d="M931.5 118.93 L931.5 441.07" stroke-width="35.25" stroke="rgba(0, 0, 0, 1)"></path><path d="M978.5 28.53 L978.5 531.48" stroke-width="35.25" stroke="rgba(0, 0, 0, 1)"></path><path d="M1025.5 229.41 L1025.5 330.58" stroke-width="35.25" stroke="rgba(0, 0, 0, 1)"></path><path d="M1072.5 151.78 L1072.5 408.22" stroke-width="35.25" stroke="rgba(255, 215, 0, 1)"></path><path d="M1119.5 99.41 L1119.5 460.59" stroke-width="35.25" stroke="rgba(255, 215, 0, 1)"></path><path d="M1166.5 75.91 L1166.5 484.09" stroke-width="35.25" stroke="rgba(255, 215, 0, 1)"></path><path d="M1213.5 106.63 L1213.5 453.37" stroke-width="35.25" stroke="rgba(0, 0, 0, 1)"></path><path d="M1260.5 193.13 L1260.5 366.87" stroke-width="35.25" stroke="rgba(255, 215, 0, 1)"></path><path d="M1307.5 96 L1307.5 464" stroke-width="35.25" stroke="rgba(255, 215, 0, 1)"></path><path d="M1354.5 91.19 L1354.5 468.81" stroke-width="35.25" stroke="rgba(255, 215, 0, 1)"></path><path d="M1401.5 184.74 L1401.5 375.26" stroke-width="35.25" stroke="rgba(255, 215, 0, 1)"></path></g></g><defs><mask id="SvgjsMask1615"><rect width="1440" height="560" fill="#ffffff"></rect></mask></defs></svg>